<svg width="1492" height="812" xmlns="http://www.w3.org/2000/svg" xmlns:xlink="http://www.w3.org/1999/xlink" xml:space="preserve" overflow="hidden"><g transform="translate(-950 -603)"><rect x="1060" y="825" width="1231" height="294" fill="#FFFFFF"/><text font-family="Courier New,Courier New_MSFontService,sans-serif" font-weight="700" font-size="303" transform="matrix(1 0 0 1 1132.25 961)">R</text><text font-family="Cambria,Cambria_MSFontService,sans-serif" font-weight="700" font-size="303" transform="matrix(1 0 0 1 2086.22 1164)">C</text><path d="M1301 880 1565 880" stroke="#7030A0" stroke-width="27.5" stroke-linejoin="round" stroke-miterlimit="10" fill="none" fill-rule="evenodd"/><path d="M1301 1070 1565 1070" stroke="#000000" stroke-width="27.5" stroke-linejoin="round" stroke-miterlimit="10" fill="none" fill-rule="evenodd"/><path d="M0 0 267.4 192.594" stroke="#000000" stroke-width="27.5" stroke-linejoin="round" stroke-miterlimit="10" fill="none" fill-rule="evenodd" transform="matrix(1 0 0 -1 1557 1072.59)"/><path d="M1558 878 1825.4 1070.5" stroke="#7030A0" stroke-width="27.5" stroke-linejoin="round" stroke-miterlimit="10" fill="none" fill-rule="evenodd"/><text fill="#006600" font-family="Courier New,Courier New_MSFontService,sans-serif" font-weight="700" font-size="32" transform="matrix(1 0 0 1 1329.41 943)">010101110011</text><text fill="#006600" font-family="Courier New,Courier New_MSFontService,sans-serif" font-weight="700" font-size="32" transform="matrix(1 0 0 1 1329.41 982)">110101010101</text><text fill="#006600" font-family="Courier New,Courier New_MSFontService,sans-serif" font-weight="700" font-size="32" transform="matrix(1 0 0 1 1329.41 1020)">010101010101</text><rect x="1825" y="896" width="33" height="158" fill="#EF8B47"/><rect x="1858" y="896" width="33" height="158" fill="#FFFFFF"/><rect x="1890" y="896" width="33" height="158" fill="#00B050"/><rect x="1923" y="896" width="33" height="158" fill="#FFFFFF"/><rect x="1955" y="896" width="33" height="158" fill="#FF0000"/><rect x="1988" y="896" width="33" height="158" fill="#FFFFFF"/><rect x="2021" y="896" width="31.9999" height="158" fill="#002060"/><rect x="2053" y="896" width="33" height="158" fill="#FFFFFF"/><path d="M1817 883 2081 883" stroke="#000000" stroke-width="27.5" stroke-linejoin="round" stroke-miterlimit="10" fill="none" fill-rule="evenodd"/><path d="M1818 1068 2082 1068" stroke="#7030A0" stroke-width="27.5" stroke-linejoin="round" stroke-miterlimit="10" fill="none" fill-rule="evenodd"/><text font-family="Courier New,Courier New_MSFontService,sans-serif" font-weight="700" font-size="64" transform="matrix(1 0 0 1 1317.6 841)">e g u l</text><text font-family="Cambria,Cambria_MSFontService,sans-serif" font-weight="700" font-size="64" transform="matrix(1 0 0 1 1872.14 1145)">m     </text><text font-family="Cambria,Cambria_MSFontService,sans-serif" font-weight="700" font-size="64" transform="matrix(1 0 0 1 2001.05 1145)">i</text><path d="M1616.5 970C1616.5 930.512 1648.74 898.5 1688.5 898.5 1728.26 898.5 1760.5 930.512 1760.5 970 1760.5 1009.49 1728.26 1041.5 1688.5 1041.5 1648.74 1041.5 1616.5 1009.49 1616.5 970Z" stroke="#FFFFFF" stroke-width="9.16667" stroke-linejoin="round" stroke-miterlimit="10" fill="#FFFFFF" fill-rule="evenodd"/><text font-family="Times New Roman,Times New Roman_MSFontService,sans-serif" font-weight="700" font-size="174" transform="matrix(1 0 0 1 1620.45 1032)">O</text></g></svg>