<svg width="1493" height="812" xmlns="http://www.w3.org/2000/svg" xmlns:xlink="http://www.w3.org/1999/xlink" xml:space="preserve" overflow="hidden"><g transform="translate(-2191 -281)"><rect x="2301" y="405" width="1260" height="488" fill="#FFFFFF"/><rect x="2301" y="503" width="1231" height="294" fill="#FFFFFF"/><text font-family="Courier New,Courier New_MSFontService,sans-serif" font-weight="700" font-size="303" transform="matrix(1 0 0 1 2373.31 639)">S</text><text font-family="Cambria,Cambria_MSFontService,sans-serif" font-weight="700" font-size="303" transform="matrix(1 0 0 1 3327.27 842)">E</text><path d="M2542 558 2806 558" stroke="#7030A0" stroke-width="27.5" stroke-linejoin="round" stroke-miterlimit="10" fill="none" fill-rule="evenodd"/><path d="M2542 748 2806 748" stroke="#000000" stroke-width="27.5" stroke-linejoin="round" stroke-miterlimit="10" fill="none" fill-rule="evenodd"/><path d="M0 0 267.4 192.594" stroke="#000000" stroke-width="27.5" stroke-linejoin="round" stroke-miterlimit="10" fill="none" fill-rule="evenodd" transform="matrix(1 0 0 -1 2799 750.594)"/><path d="M2799 555 3066.4 747.5" stroke="#7030A0" stroke-width="27.5" stroke-linejoin="round" stroke-miterlimit="10" fill="none" fill-rule="evenodd"/><rect x="3066" y="574" width="33" height="157" fill="#EF8B47"/><rect x="3099" y="574" width="33" height="157" fill="#FFFFFF"/><rect x="3131" y="574" width="33" height="157" fill="#00B050"/><rect x="3164" y="574" width="33" height="157" fill="#FFFFFF"/><rect x="3196" y="574" width="33" height="157" fill="#FF0000"/><rect x="3229" y="574" width="33" height="157" fill="#FFFFFF"/><rect x="3262" y="574" width="33" height="157" fill="#002060"/><rect x="3295" y="574" width="32.0002" height="157" fill="#FFFFFF"/><path d="M3058 561 3322 561" stroke="#000000" stroke-width="27.5" stroke-linejoin="round" stroke-miterlimit="10" fill="none" fill-rule="evenodd"/><path d="M3059 746 3323 746" stroke="#7030A0" stroke-width="27.5" stroke-linejoin="round" stroke-miterlimit="10" fill="none" fill-rule="evenodd"/><text font-family="Courier New,Courier New_MSFontService,sans-serif" font-weight="700" font-size="64" transform="matrix(1 0 0 1 2558.66 519)">c R e g</text><text font-family="Cambria,Cambria_MSFontService,sans-serif" font-weight="700" font-size="64" transform="matrix(1 0 0 1 3061.86 823)">U  L  A  T</text><text fill="#00B050" font-family="Courier New,Courier New_MSFontService,sans-serif" font-weight="700" font-size="55" transform="matrix(1 0 0 1 2567.6 634)">01010100</text><text fill="#00B050" font-family="Courier New,Courier New_MSFontService,sans-serif" font-weight="700" font-size="55" transform="matrix(1 0 0 1 2567.6 700)">01000110</text></g></svg>