<?xml version="1.0" encoding="UTF-8" standalone="no"?>
<svg
   width="1493"
   height="812"
   xml:space="preserve"
   overflow="hidden"
   version="1.1"
   id="svg17"
   sodipodi:docname="tool_logo3.svg"
   inkscape:export-filename="tool_logo2.svg"
   inkscape:export-xdpi="96"
   inkscape:export-ydpi="96"
   inkscape:version="1.3.1 (91b66b0783, 2023-11-16)"
   xmlns:inkscape="http://www.inkscape.org/namespaces/inkscape"
   xmlns:sodipodi="http://sodipodi.sourceforge.net/DTD/sodipodi-0.dtd"
   xmlns="http://www.w3.org/2000/svg"
   xmlns:svg="http://www.w3.org/2000/svg"><defs
     id="defs17" /><sodipodi:namedview
     id="namedview17"
     pagecolor="#ffffff"
     bordercolor="#666666"
     borderopacity="1.0"
     inkscape:showpageshadow="2"
     inkscape:pageopacity="0.0"
     inkscape:pagecheckerboard="0"
     inkscape:deskcolor="#d1d1d1"
     inkscape:zoom="0.47503557"
     inkscape:cx="382.07665"
     inkscape:cy="306.29285"
     inkscape:window-width="1920"
     inkscape:window-height="974"
     inkscape:window-x="-11"
     inkscape:window-y="-11"
     inkscape:window-maximized="1"
     inkscape:current-layer="g17" /><g
     transform="translate(-2191 -281)"
     id="g17"><rect
       x="2301"
       y="405"
       width="1260"
       height="488"
       fill="#FFFFFF"
       id="rect1" /><rect
       x="2301"
       y="503"
       width="1231"
       height="294"
       fill="#FFFFFF"
       id="rect2" /><text
       font-family="Courier New,Courier New_MSFontService,sans-serif"
       font-weight="700"
       font-size="303"
       transform="matrix(1 0 0 1 2373.31 639)"
       id="text2">S</text><text
       font-family="Cambria,Cambria_MSFontService,sans-serif"
       font-weight="700"
       font-size="303"
       transform="matrix(1 0 0 1 3327.27 842)"
       id="text3">E</text><path
       d="M2542 558 2806 558"
       stroke="#7030A0"
       stroke-width="27.5"
       stroke-linejoin="round"
       stroke-miterlimit="10"
       fill="none"
       fill-rule="evenodd"
       id="path3" /><path
       d="M2542 748 2806 748"
       stroke="#000000"
       stroke-width="27.5"
       stroke-linejoin="round"
       stroke-miterlimit="10"
       fill="none"
       fill-rule="evenodd"
       id="path4" /><path
       d="M0 0 267.4 192.594"
       stroke="#000000"
       stroke-width="27.5"
       stroke-linejoin="round"
       stroke-miterlimit="10"
       fill="none"
       fill-rule="evenodd"
       transform="matrix(1 0 0 -1 2799 750.594)"
       id="path5" /><path
       d="M2799 555 3066.4 747.5"
       stroke="#7030A0"
       stroke-width="27.5"
       stroke-linejoin="round"
       stroke-miterlimit="10"
       fill="none"
       fill-rule="evenodd"
       id="path6" /><rect
       x="3066"
       y="574"
       width="33"
       height="157"
       fill="#EF8B47"
       id="rect6" /><rect
       x="3099"
       y="574"
       width="33"
       height="157"
       fill="#FFFFFF"
       id="rect7" /><rect
       x="3131"
       y="574"
       width="33"
       height="157"
       fill="#00B050"
       id="rect8" /><rect
       x="3164"
       y="574"
       width="33"
       height="157"
       fill="#FFFFFF"
       id="rect9" /><rect
       x="3196"
       y="574"
       width="33"
       height="157"
       fill="#FF0000"
       id="rect10" /><rect
       x="3229"
       y="574"
       width="33"
       height="157"
       fill="#FFFFFF"
       id="rect11" /><rect
       x="3262"
       y="574"
       width="33"
       height="157"
       fill="#002060"
       id="rect12" /><rect
       x="3295"
       y="574"
       width="32.0002"
       height="157"
       fill="#FFFFFF"
       id="rect13" /><path
       d="M3058 561 3322 561"
       stroke="#000000"
       stroke-width="27.5"
       stroke-linejoin="round"
       stroke-miterlimit="10"
       fill="none"
       fill-rule="evenodd"
       id="path13" /><path
       d="M3059 746 3323 746"
       stroke="#7030A0"
       stroke-width="27.5"
       stroke-linejoin="round"
       stroke-miterlimit="10"
       fill="none"
       fill-rule="evenodd"
       id="path14" /><text
       font-family="Courier New,Courier New_MSFontService,sans-serif"
       font-weight="700"
       font-size="64"
       transform="matrix(1 0 0 1 2558.66 519)"
       id="text14">c R e g</text><path
       d="m 30.53125,-34.8125 q 0,-2.34375 -0.21875,-3.25 -0.1875,-0.9375 -0.78125,-1.5 -0.59375,-0.5625 -2.3125,-1.03125 v -2.0625 h 13.75 v 2.0625 q -1.125,0.3125 -1.78125,0.6875 -0.65625,0.34375 -1,1 -0.34375,0.625 -0.4375,1.625 -0.09375,0.96875 -0.09375,2.46875 v 19.53125 q 0,3.875 -0.625,6.5 -0.625,2.59375 -1.9375,4.375 -1.3125,1.78125 -3.28125,2.875 -1.9375,1.09375 -4.375,1.5625 Q 25,0.5 21.96875,0.5 q -4.4375,0 -7.5,-0.90625 -3.0625,-0.9375 -5,-2.78125 Q 7.5625,-5.0625 6.625,-7.71875 5.71875,-10.375 5.71875,-14.5625 v -20.21875 q 0,-1.46875 -0.09375,-2.46875 -0.0625,-1 -0.40625,-1.625 -0.3125,-0.625 -1,-1 Q 3.5625,-40.28125 2.375,-40.59375 v -2.0625 h 16.40625 v 2.0625 q -1.28125,0.34375 -1.90625,0.75 -0.59375,0.375 -0.90625,0.9375 -0.3125,0.5625 -0.4375,1.46875 -0.125,0.90625 -0.125,2.65625 v 20.625 q 0,2.46875 0.3125,4.5 0.3125,2.03125 1.125,3.5 0.84375,1.4375 2.3125,2.21875 1.46875,0.78125 3.78125,0.78125 3.1875,0 4.75,-1.28125 Q 29.25,-5.71875 29.875,-8 q 0.65625,-2.3125 0.65625,-6.875 z M 90.875,-42.65625 v 2.0625 q -1.125,0.3125 -1.78125,0.6875 -0.65625,0.34375 -1.03125,0.96875 -0.34375,0.625 -0.46875,1.625 Q 87.5,-36.34375 87.5,-34.84375 v 31.125 h 6.0625 q 1.8125,0 2.90625,-0.5625 1.09375,-0.5625 1.875,-1.71875 0.8125,-1.1875 1.375,-3.0625 0.59375,-1.90625 0.9375,-3.5625 h 4.28125 L 104.25,0 H 74.46875 v -2.0625 q 1.15625,-0.3125 1.8125,-0.6875 0.6875,-0.375 1,-1 0.34375,-0.65625 0.4375,-1.625 0.09375,-1 0.09375,-2.5 v -26.90625 q 0,-1.46875 -0.09375,-2.46875 -0.0625,-1 -0.40625,-1.625 -0.3125,-0.625 -1,-1 -0.65625,-0.40625 -1.84375,-0.71875 v -2.0625 z m 69.25,29.4375 H 146.78125 L 145.75,-10.25 q -0.4375,1.25 -0.71875,2.4375 -0.28125,1.15625 -0.28125,2.46875 0,3.0625 3.25,3.28125 V 0 h -13.34375 v -2.0625 q 1.15625,-0.125 2.03125,-0.8125 0.875,-0.6875 1.59375,-1.875 Q 139,-5.9375 139.8125,-8.15625 L 152.84375,-42.875 h 8.34375 l 10.3125,35 q 0.6875,2.34375 1.15625,3.34375 0.46875,0.96875 1.21875,1.59375 0.75,0.59375 2.09375,0.875 V 0 h -17.25 v -2.0625 q 1.625,-0.1875 2.40625,-0.90625 0.78125,-0.71875 0.78125,-2.03125 0,-0.96875 -0.21875,-2.15625 -0.21875,-1.1875 -0.71875,-3 z M 147.96875,-16.875 h 11.25 l -5,-17.59375 z M 216.65625,0 v -2.0625 q 1.3125,-0.21875 2.0625,-0.5625 Q 219.5,-3 219.875,-3.65625 q 0.375,-0.65625 0.46875,-1.65625 0.0937,-1.03125 0.0937,-2.53125 V -39 h -2.53125 q -1.875,0 -2.875,0.4375 -1,0.4375 -1.75,1.375 -0.71875,0.9375 -1.25,2.53125 -0.53125,1.5625 -0.875,2.96875 H 206.875 v -10.96875 h 36.78125 V -31.6875 H 239.375 q -0.59375,-2.125 -0.9375,-3.125 -0.34375,-1 -0.78125,-1.6875 -0.40625,-0.71875 -0.875,-1.1875 -0.46875,-0.46875 -1,-0.75 Q 235.25,-38.71875 234.4375,-38.84375 233.65625,-39 232.375,-39 h -2.25 v 31.15625 q 0,1.65625 0.0937,2.53125 0.0937,0.84375 0.34375,1.375 0.25,0.53125 0.59375,0.875 0.375,0.3125 1,0.59375 0.65625,0.25 1.75,0.40625 V 0 Z"
       id="text15"
       style="font-weight:700;font-size:64px;font-family:Cambria, Cambria_MSFontService, sans-serif"
       transform="matrix(1 0 0 1 3061.86 823)"
       aria-label="U  L  A  T" /><text
       fill="#00B050"
       font-family="Courier New,Courier New_MSFontService,sans-serif"
       font-weight="700"
       font-size="55"
       transform="matrix(1 0 0 1 2567.6 634)"
       id="text16">01010100</text><text
       fill="#00B050"
       font-family="Courier New,Courier New_MSFontService,sans-serif"
       font-weight="700"
       font-size="55"
       transform="matrix(1 0 0 1 2567.6 700)"
       id="text17">01000110</text></g></svg>
